<svg id="Capa_1" data-name="Capa 1" xmlns="http://www.w3.org/2000/svg" viewBox="0 0 226.1 226.1"><defs><style>.cls-1{fill:#fff;}</style></defs><path class="cls-1" d="M88.44,108.61A37.63,37.63,0,0,0,65.32,41.26H7.5A7.5,7.5,0,0,0,0,48.76V177.34a7.5,7.5,0,0,0,7.5,7.5H65.32a41.62,41.62,0,0,0,23.12-76.23ZM65.32,56.26a22.66,22.66,0,1,1,0,45.32H15V56.26Zm0,113.58H15V116.58H65.32a26.63,26.63,0,0,1,0,53.26Z"/><path class="cls-1" d="M171.18,75A54.93,54.93,0,1,0,210,168.75a7.5,7.5,0,0,0-10.6-10.61A39.91,39.91,0,0,1,132,137.41H218.6a7.5,7.5,0,0,0,7.5-7.5A55,55,0,0,0,171.18,75Zm0,15a40,40,0,0,1,39.2,32.42H132A40,40,0,0,1,171.18,90Z"/><path class="cls-1" d="M137.43,60.23h63.49a7.5,7.5,0,0,0,0-15H137.43a7.5,7.5,0,0,0,0,15Z"/></svg>