<svg id="Capa_1" data-name="Capa 1" xmlns="http://www.w3.org/2000/svg" viewBox="0 0 512 512"><defs><style>.cls-1{fill:#fff;}</style></defs><path class="cls-1" d="M437,75C335.58-23.5,173.5-21.13,75,80.29-21.47,179.63-21.47,337.67,75,437a254.34,254.34,0,0,0,181,75,15,15,0,0,0,0-30C131.38,482,30,380.62,30,256S131.38,30,256,30,482,131.38,482,256v60.25a45.25,45.25,0,0,1-90.5,0V256c0-74.71-60.79-135.5-135.5-135.5S120.5,181.29,120.5,256,181.29,391.5,256,391.5a135.39,135.39,0,0,0,108.47-54.38A75.24,75.24,0,0,0,512,316.25V256A254.34,254.34,0,0,0,437,75ZM256,361.5A105.5,105.5,0,1,1,361.5,256,105.49,105.49,0,0,1,256,361.5Z"/></svg>