<svg id="Capa_1" data-name="Capa 1" xmlns="http://www.w3.org/2000/svg" viewBox="0 0 152.22 152.22"><defs><style>.cls-1{fill:#fff;}</style></defs><path class="cls-1" d="M14.46,35.82A7.5,7.5,0,0,0,7,43.32v101.4a7.5,7.5,0,0,0,15,0V43.32A7.5,7.5,0,0,0,14.46,35.82Z"/><path class="cls-1" d="M68,115.05a7.5,7.5,0,0,0-7.5,7.5v22.17a7.5,7.5,0,1,0,15,0V122.55A7.5,7.5,0,0,0,68,115.05Z"/><path class="cls-1" d="M102.89,43.89A42.15,42.15,0,0,0,75.51,54V43.32a7.5,7.5,0,1,0-15,0V86.25h0a7.5,7.5,0,1,0,15,0,27.38,27.38,0,0,1,54.75,0v58.46a7.5,7.5,0,1,0,15,0V86.26A42.42,42.42,0,0,0,102.89,43.89Z"/><path class="cls-1" d="M14.46,15a7.6,7.6,0,0,0,5.31-2.19,7.52,7.52,0,0,0,0-10.61,7.5,7.5,0,0,0-10.61,0,7.5,7.5,0,0,0,0,10.61A7.58,7.58,0,0,0,14.46,15Z"/></svg>